 http://desibbrg.org/images/66952052392581364616.gif 
http://desibbrg.org/images/20367041636440365769.jpg 
http://desibbrg.org/images/10157093226170058515.jpg 
http://desibbrg.org/images/51465476045021596558.jpg 
http://desibbrg.org/images/40881337822160199703.jpg

Info - 
    Sachin - Gautam
    Ashok Saraf - Phalgun
    Varsha Usgaonkar - Kalpana
    Charusheela Sabale - Ashwini
    Chetan Dalvi - Shrikant
    Sudhir Joshi - Shrikant Uncle Guest appearance
    Satish Shah - Inspector
    Jairam Kulkarni - Bar Owner
    Shrikant Moghe - Kalpana Father
    Viju Khote - Ganu Pehelwan
    Bipin Varti - Gotya
    Suhas Bhalekar - Mr Sonya
    Manorma Wagle - Mrs Sonya

Media Info - 
Video
Format : MPEG-4 Visual
Format profile : Advanced Simple@L1
Format settings, BVOP : 2
Format settings, QPel : No
Format settings, GMC : No warppoints
Format settings, Matrix : Default (H.263)
Codec ID : divx
Codec ID/Info : Mainly used by Google
Codec ID/Hint : DivX
Duration : 2h 25mn
Bit rate : 487 Kbps
Width : 320 pixels
Height : 240 pixels
Display aspect ratio : 4:3
Frame rate : 25.000 fps
Color space : YUV
Chroma subsampling : 4:2:0
Bit depth : 8 bits
Scan type : Progressive
Compression mode : Lossy
Bits/(Pixel*Frame) : 0.253
Stream size : 505 MiB (87%)
Writing library : Lavc50.0.0

Audio
Format : MPEG Audio
Format version : Version 2
Format profile : Layer 3
Codec ID : 55
Codec ID/Hint : MP3
Duration : 2h 25mn
Bit rate mode : Constant
Bit rate : 64.0 Kbps
Channel(s) : 1 channel
Sampling rate : 22.05 KHz
Compression mode : Lossy
Stream size : 66.5 MiB (11%)
Alignment : Split accross interleaves
Interleave, duration : 40 ms (1.00 video frame)
Interleave, preload duration : 500 ms
Writing library : LAME3.96.1

Ripper : Seeding 24x7... Extreme Seeding...


Enjoy!
